<svg xmlns="http://www.w3.org/2000/svg" width="720" height="760" viewBox="0 0 720 760" role="img" aria-labelledby="title desc"><title id="title">Adaptación móvil a 320 píxeles</title><desc id="desc">Dos pantallas móviles: lista como registros verticales y detalle de ancho completo.</desc><style>text{font-family:Arial,sans-serif;fill:#222}.h{font-size:16px;font-weight:700}.m{font-size:12px}.s{font-size:10px;fill:#666}.box{fill:#fff;stroke:#aaa}.soft{fill:#eee;stroke:#bbb}.note{fill:#fff7d6;stroke:#b79528}</style><rect width="720" height="760" fill="#fafafa"/><rect class="box" x="20" y="20" width="320" height="700" rx="12"/><rect class="box" x="380" y="20" width="320" height="700" rx="12"/><text class="h" x="40" y="54">Procesos</text><rect class="soft" x="40" y="76" width="280" height="42"/><text class="m" x="52" y="101">Buscar procesos</text><rect class="box" x="40" y="136" width="280" height="208"/><text class="s" x="56" y="160">PROCESO</text><text class="h" x="56" y="186">Mantención de equipos</text><text class="s" x="56" y="208">1234-5-LE26</text><text class="s" x="56" y="238">CIERRE</text><text class="m" x="56" y="258">28/08/2026 · 12:00</text><text class="s" x="188" y="238">REGIÓN</text><text class="m" x="188" y="258">13</text><text class="s" x="56" y="290">COMPRADOR</text><text class="m" x="56" y="312">Municipalidad de Santiago</text><rect class="note" x="40" y="380" width="280" height="92"/><text class="m" x="54" y="408">Sin scroll horizontal</text><text class="s" x="54" y="432">Mismo orden semántico.</text><text class="s" x="54" y="452">Objetivos ≥ 44 × 44 px.</text>
<text class="h" x="400" y="54">Mantención de equipos</text><text class="s" x="400" y="76">1234-5-LE26</text><rect class="soft" x="400" y="96" width="280" height="82"/><text class="m" x="414" y="122">Cierra 28 ago, 12:00</text><text class="m" x="414" y="144">Publicada · Región 13</text><text class="m" x="414" y="164">CLP 300.000 · 0 docs.</text><text class="m" x="400" y="210">Resumen　 Ítems　 Docs.</text><text class="s" x="400" y="244">Monto publicado por la fuente.</text><text class="s" x="400" y="264">La factibilidad no está evaluada.</text><rect x="400" y="304" width="280" height="48" fill="#333"/><text class="m" x="454" y="334" fill="#fff">Marcar para investigar</text><rect class="box" x="400" y="388" width="280" height="48"/><text class="m" x="416" y="418">Información técnica　⌄</text></svg>
